# xmcd
#
# Track frame offsets:
#	150
#	16124
#	32379
#	50472
#	72409
#	87003
#	108632
#	123521
#	140273
#	157184
#
# Disc length: 2311 seconds
#
# Revision: 1
# Processed by: cddbd v1.5.2PL0 Copyright (c) Steve Scherf et al.
# Submitted via: audiograbber 1.83.01
#
DISCID=7e09050a
DTITLE=Various Artist - Christmas Grass (Vol 3)
DYEAR=2007
DGENRE=Bluegrass
TTITLE0=Sonya Isaacs - New Star Shining
TTITLE1=John Cowan - The Christmas Song
TTITLE2=John Cowan - Please Come Home For Christmas
TTITLE3=Sarah Jarosz - O Holy Night
TTITLE4=Sarah Jarosz - One Bright Star
TTITLE5=Larry Sparks - White Christmas
TTITLE6=Larry Sparks - I Heard The Bells On Christmas Day
TTITLE7=Russell Moore - I'll Be Home For Christmas
TTITLE8=Russell Moore - Have Yourself A Merry Little Christmas
TTITLE9=Charlie Daniels - Watching Over The Soldiers At Christmas
EXTD=
EXTT0=
EXTT1=
EXTT2=
EXTT3=
EXTT4=
EXTT5=
EXTT6=
EXTT7=
EXTT8=
EXTT9=
PLAYORDER=
